<svg xmlns="http://www.w3.org/2000/svg" width="256" height="256" viewBox="0 0 24 24" fill="none" stroke="currentColor" stroke-width="1.5" stroke-linecap="round" stroke-linejoin="round">
  <!-- Antenna mast -->
  <path d="M12 3v12" />
  <circle cx="12" cy="3" r="1.25" fill="currentColor" stroke="none"/>
  <!-- Base -->
  <path d="M8 21h8M10.5 21l1.5-6 1.5 6" />
  <!-- Signal waves (left) -->
  <path d="M9.5 6.5c-1.2 1.2-1.2 3.1 0 4.3" />
  <path d="M7.7 4.7c-2.2 2.2-2.2 5.8 0 8" />
  <path d="M5.9 2.9c-3.2 3.2-3.2 8.4 0 11.6" />
  <!-- Signal waves (right) -->
  <path d="M14.5 6.5c1.2 1.2 1.2 3.1 0 4.3" />
  <path d="M16.3 4.7c2.2 2.2 2.2 5.8 0 8" />
  <path d="M18.1 2.9c3.2 3.2 3.2 8.4 0 11.6" />
  <!-- 5G label -->
  <text x="12" y="24" font-size="4" text-anchor="middle" fill="currentColor">5G</text>
</svg>
